<svg width="16" height="17" viewBox="0 0 16 17" fill="none" xmlns="http://www.w3.org/2000/svg">
<path d="M12.9986 5.3353L8.00057 10.2073L3.00256 5.3353C2.91327 5.24807 2.79339 5.19924 2.66856 5.19924C2.54374 5.19924 2.42386 5.24807 2.33456 5.3353C2.29133 5.37766 2.25698 5.42822 2.23353 5.48403C2.21008 5.53984 2.198 5.59976 2.198 5.66029C2.198 5.72083 2.21008 5.78075 2.23353 5.83656C2.25698 5.89236 2.29133 5.94293 2.33456 5.98529L7.65157 11.1693C7.74494 11.2603 7.87017 11.3112 8.00057 11.3112C8.13096 11.3112 8.25619 11.2603 8.34957 11.1693L13.6666 5.9863C13.7101 5.9439 13.7447 5.89321 13.7683 5.83722C13.792 5.78123 13.8042 5.72107 13.8042 5.66029C13.8042 5.59952 13.792 5.53936 13.7683 5.48337C13.7447 5.42738 13.7101 5.37669 13.6666 5.33429C13.5773 5.24707 13.4574 5.19824 13.3326 5.19824C13.2077 5.19824 13.0879 5.24707 12.9986 5.33429V5.3353Z" fill="#52526C"/>
</svg>
