<svg width="25" height="24" viewBox="0 0 25 24" fill="none" xmlns="http://www.w3.org/2000/svg">
<path fill-rule="evenodd" clip-rule="evenodd" d="M4.11879 11.9817C4.11879 11.743 4.21361 11.5141 4.38239 11.3453C4.55117 11.1765 4.78009 11.0817 5.01879 11.0817L17.7844 11.0817L12.7948 6.32968C12.6311 6.16238 12.5391 5.9379 12.5381 5.70385C12.5372 5.46981 12.6275 5.24461 12.7898 5.07602C12.9522 4.90743 13.1738 4.80871 13.4077 4.80081C13.6416 4.7929 13.8694 4.87643 14.0428 5.03368L20.6428 11.3337C20.7299 11.4176 20.7992 11.5183 20.8465 11.6296C20.8938 11.741 20.9182 11.8607 20.9182 11.9817C20.9182 12.1027 20.8938 12.2224 20.8465 12.3337C20.7992 12.4451 20.7299 12.5457 20.6428 12.6297L14.0428 18.9297C13.9586 19.0158 13.8579 19.0841 13.7468 19.1306C13.6357 19.1771 13.5163 19.2008 13.3959 19.2003C13.2755 19.1998 13.1563 19.1752 13.0456 19.1278C12.9348 19.0804 12.8347 19.0113 12.7512 18.9246C12.6676 18.8378 12.6023 18.7352 12.5592 18.6227C12.516 18.5103 12.4959 18.3903 12.5 18.2699C12.504 18.1495 12.5322 18.0312 12.5829 17.9219C12.6335 17.8126 12.7056 17.7146 12.7948 17.6337L17.7844 12.8817L5.01879 12.8817C4.78009 12.8817 4.55117 12.7869 4.38239 12.6181C4.21361 12.4493 4.11879 12.2204 4.11879 11.9817Z" fill="white"/>
</svg>
