<svg width="16" height="16" viewBox="0 0 16 16" fill="none" xmlns="http://www.w3.org/2000/svg">
<path d="M4.83529 3.00168L9.70729 7.99968L4.8353 12.9977C4.74807 13.087 4.69924 13.2069 4.69924 13.3317C4.69924 13.4565 4.74807 13.5764 4.8353 13.6657C4.87766 13.7089 4.92822 13.7433 4.98403 13.7667C5.03984 13.7902 5.09976 13.8022 5.16029 13.8022C5.22083 13.8022 5.28075 13.7902 5.33656 13.7667C5.39236 13.7433 5.44293 13.7089 5.48529 13.6657L10.6693 8.34868C10.7603 8.25531 10.8112 8.13007 10.8112 7.99968C10.8112 7.86929 10.7603 7.74405 10.6693 7.65068L5.48629 2.33368C5.4439 2.29013 5.39321 2.25553 5.33722 2.23189C5.28123 2.20826 5.22107 2.19609 5.16029 2.19609C5.09952 2.19609 5.03936 2.20826 4.98337 2.23189C4.92738 2.25553 4.87669 2.29013 4.83429 2.33368C4.74707 2.42298 4.69824 2.54285 4.69824 2.66768C4.69824 2.79251 4.74707 2.91238 4.83429 3.00168L4.83529 3.00168Z" fill="#52526C"/>
</svg>
