<svg width="24" height="24" viewBox="0 0 24 24" fill="none" xmlns="http://www.w3.org/2000/svg">
    <path fill-rule="evenodd" clip-rule="evenodd" d="M20.3811 11.9817C20.3811 11.743 20.2863 11.5141 20.1175 11.3453C19.9487 11.1765 19.7198 11.0817 19.4811 11.0817L6.71549 11.0817L11.7051 6.32968C11.8688 6.16238 11.9608 5.9379 11.9618 5.70385C11.9627 5.46981 11.8724 5.24461 11.71 5.07602C11.5477 4.90743 11.3261 4.80871 11.0922 4.80081C10.8582 4.7929 10.6304 4.87643 10.4571 5.03368L3.85709 11.3337C3.76998 11.4176 3.7007 11.5183 3.65338 11.6296C3.60606 11.741 3.58167 11.8607 3.58167 11.9817C3.58167 12.1027 3.60606 12.2224 3.65338 12.3337C3.7007 12.4451 3.76998 12.5457 3.85709 12.6297L10.4571 18.9297C10.5413 19.0158 10.642 19.0841 10.7531 19.1306C10.8642 19.1771 10.9835 19.2008 11.104 19.2003C11.2244 19.1998 11.3436 19.1752 11.4543 19.1278C11.565 19.0804 11.6652 19.0113 11.7487 18.9246C11.8323 18.8378 11.8975 18.7352 11.9407 18.6227C11.9838 18.5103 12.004 18.3903 11.9999 18.2699C11.9958 18.1495 11.9676 18.0312 11.917 17.9219C11.8664 17.8126 11.7943 17.7146 11.7051 17.6337L6.71549 12.8817L19.4811 12.8817C19.7198 12.8817 19.9487 12.7869 20.1175 12.6181C20.2863 12.4493 20.3811 12.2204 20.3811 11.9817Z" fill="#CED4D3"/>
</svg>
