<svg width="16" height="17" viewBox="0 0 16 17" fill="none" xmlns="http://www.w3.org/2000/svg">
<path d="M12.9986 11.174L8.00057 6.30198L3.00256 11.174C2.91327 11.2612 2.79339 11.31 2.66856 11.31C2.54374 11.31 2.42386 11.2612 2.33456 11.174C2.29133 11.1316 2.25698 11.0811 2.23353 11.0252C2.21008 10.9694 2.198 10.9095 2.198 10.849C2.198 10.7884 2.21008 10.7285 2.23353 10.6727C2.25698 10.6169 2.29133 10.5663 2.33456 10.524L7.65157 5.33998C7.74494 5.24897 7.87017 5.19803 8.00057 5.19803C8.13096 5.19803 8.25619 5.24897 8.34957 5.33998L13.6666 10.523C13.7101 10.5654 13.7447 10.6161 13.7683 10.6721C13.792 10.7281 13.8042 10.7882 13.8042 10.849C13.8042 10.9098 13.792 10.9699 13.7683 11.0259C13.7447 11.0819 13.7101 11.1326 13.6666 11.175C13.5773 11.2622 13.4574 11.311 13.3326 11.311C13.2077 11.311 13.0879 11.2622 12.9986 11.175V11.174Z" fill="#52526C"/>
</svg>
