<svg width="18" height="19" viewBox="0 0 18 19" fill="none" xmlns="http://www.w3.org/2000/svg">
<path d="M16.7419 8.80933L9.21526 15.8799C8.29318 16.7461 7.04258 17.2327 5.73856 17.2327C4.43455 17.2327 3.18395 16.7461 2.26187 15.8799C1.33979 15.0137 0.821777 13.8389 0.821777 12.6139C0.821777 11.3889 1.33979 10.2141 2.26187 9.34789L9.78856 2.27736C10.4033 1.6999 11.237 1.37549 12.1064 1.37549C12.9757 1.37549 13.8094 1.6999 14.4242 2.27736C15.0389 2.85483 15.3842 3.63803 15.3842 4.45469C15.3842 5.27134 15.0389 6.05455 14.4242 6.63201L6.88927 13.7025C6.58191 13.9913 6.16504 14.1535 5.73037 14.1535C5.2957 14.1535 4.87883 13.9913 4.57148 13.7025C4.26412 13.4138 4.09144 13.0222 4.09144 12.6139C4.09144 12.2056 4.26412 11.8139 4.57148 11.5252L11.5249 5.00094" stroke="#8A8A93" stroke-width="1.58683" stroke-linecap="round" stroke-linejoin="round"/>
</svg>
