<svg width="151" height="151" viewBox="0 0 151 151" fill="none" xmlns="http://www.w3.org/2000/svg">
<path d="M149 75.5001C149 116.093 116.093 149 75.5 149C61.4807 149 48.378 145.075 37.2311 138.264L16.1118 145.754C12.1265 147.168 8.14136 143.647 9.0524 139.518L14.2197 116.097C6.49809 104.465 2 90.508 2 75.5001C2 34.9071 34.9071 2.00006 75.5 2.00006C116.093 2.00006 149 34.9071 149 75.5001Z" fill="white"/>
<path fill-rule="evenodd" clip-rule="evenodd" d="M75.5 3.79526C115.101 3.79526 147.205 35.8986 147.205 75.5C147.205 115.101 115.101 147.205 75.5 147.205C61.8202 147.205 49.0402 143.376 38.1671 136.732L37.4372 136.286L15.5117 144.062C12.8548 145.005 10.198 142.658 10.8054 139.905L16.137 115.74L15.7153 115.105C8.18303 103.758 3.79517 90.144 3.79517 75.5C3.79517 35.8986 35.8985 3.79526 75.5 3.79526ZM150.795 75.5C150.795 33.9156 117.084 0.204834 75.5 0.204834C33.9156 0.204834 0.204742 33.9156 0.204742 75.5C0.204742 90.5976 4.65004 104.662 12.3035 116.45L7.2993 139.131C6.08458 144.637 11.3981 149.331 16.7118 147.446L37.0309 140.24C48.2908 146.944 61.4483 150.795 75.5 150.795C117.084 150.795 150.795 117.084 150.795 75.5Z" fill="#2EC4B6"/>
<path d="M54.9275 45L44 55.9275L49.58 61.5075L63.375 75.535L49.58 89.33L44 94.6775L54.9275 105.837L60.5075 100.257L74.535 86.23L88.33 100.257L93.6775 105.837L104.837 94.6775L99.2575 89.33L85.23 75.535L99.2575 61.5075L104.837 55.9275L93.6775 45L88.33 50.58L74.535 64.375L60.5075 50.58L54.9275 45Z" fill="#E85E5E"/>
</svg>
