<svg width="17" height="16" viewBox="0 0 17 16" fill="none" xmlns="http://www.w3.org/2000/svg">
<path d="M2.8598 3.50002C2.72719 3.50002 2.60002 3.5527 2.50625 3.64647C2.41248 3.74024 2.3598 3.86741 2.3598 4.00002C2.3598 4.13263 2.41248 4.25981 2.50625 4.35357C2.60002 4.44734 2.72719 4.50002 2.8598 4.50002H3.9698L5.2818 9.75002C5.3933 10.195 5.7918 10.5 6.2503 10.5H12.4853C12.9368 10.5 13.3203 10.2 13.4388 9.76502L14.7348 5.00002H13.6878L12.4848 9.50002H6.2498L4.9383 4.25002C4.88413 4.03464 4.75924 3.84366 4.58364 3.70768C4.40804 3.5717 4.19189 3.49857 3.9698 3.50002H2.8598ZM11.8598 10.5C11.0373 10.5 10.3598 11.1775 10.3598 12C10.3598 12.8225 11.0373 13.5 11.8598 13.5C12.6823 13.5 13.3598 12.8225 13.3598 12C13.3598 11.1775 12.6823 10.5 11.8598 10.5ZM7.3598 10.5C6.5373 10.5 5.8598 11.1775 5.8598 12C5.8598 12.8225 6.5373 13.5 7.3598 13.5C8.1823 13.5 8.8598 12.8225 8.8598 12C8.8598 11.1775 8.1823 10.5 7.3598 10.5ZM8.8598 3.50002V6.00002H7.3598L9.3598 8.00002L11.3598 6.00002H9.8598V3.50002H8.8598ZM7.3598 11.5C7.6418 11.5 7.8598 11.718 7.8598 12C7.8598 12.282 7.6418 12.5 7.3598 12.5C7.0778 12.5 6.8598 12.282 6.8598 12C6.8598 11.718 7.0778 11.5 7.3598 11.5ZM11.8598 11.5C12.1418 11.5 12.3598 11.718 12.3598 12C12.3598 12.282 12.1418 12.5 11.8598 12.5C11.5778 12.5 11.3598 12.282 11.3598 12C11.3598 11.718 11.5778 11.5 11.8598 11.5Z" fill="#16C7F9"/>
</svg>
