<svg width="27" height="27" viewBox="0 0 27 27" fill="none" xmlns="http://www.w3.org/2000/svg">
<rect x="0.5" y="0.5" width="26" height="26" rx="13" fill="#D5F3F0"/>
<rect x="0.5" y="0.5" width="26" height="26" rx="13" stroke="white"/>
<path fill-rule="evenodd" clip-rule="evenodd" d="M12.3241 8.83333C12.0715 8.83333 11.8407 8.976 11.7278 9.20186L11.4648 9.72776C11.126 10.4053 10.4335 10.8333 9.67596 10.8333H8.83334C8.46515 10.8333 8.16668 11.1318 8.16668 11.5V17.5C8.16668 17.8682 8.46515 18.1667 8.83334 18.1667H18.1667C18.5349 18.1667 18.8333 17.8682 18.8333 17.5V11.5C18.8333 11.1318 18.5349 10.8333 18.1667 10.8333H17.3241C16.5665 10.8333 15.874 10.4053 15.5352 9.72776L15.2723 9.20186C15.1593 8.976 14.9285 8.83333 14.676 8.83333H12.3241ZM10.5352 8.60557C10.874 7.928 11.5665 7.5 12.3241 7.5H14.676C15.4335 7.5 16.126 7.928 16.4648 8.60557L16.7278 9.13148C16.8407 9.35733 17.0715 9.5 17.3241 9.5H18.1667C19.2712 9.5 20.1667 10.3954 20.1667 11.5V17.5C20.1667 18.6046 19.2712 19.5 18.1667 19.5H8.83334C7.72877 19.5 6.83334 18.6046 6.83334 17.5V11.5C6.83334 10.3954 7.72877 9.5 8.83334 9.5H9.67596C9.92848 9.5 10.1593 9.35733 10.2722 9.13148L10.5352 8.60557Z" fill="#2EC4B6"/>
<path fill-rule="evenodd" clip-rule="evenodd" d="M13.5 12.1666C12.3955 12.1666 11.5 13.062 11.5 14.1666C11.5 15.2712 12.3955 16.1666 13.5 16.1666C14.6046 16.1666 15.5 15.2712 15.5 14.1666C15.5 13.062 14.6046 12.1666 13.5 12.1666ZM10.1667 14.1666C10.1667 12.3256 11.6591 10.8333 13.5 10.8333C15.341 10.8333 16.8334 12.3256 16.8334 14.1666C16.8334 16.0075 15.341 17.4999 13.5 17.4999C11.6591 17.4999 10.1667 16.0075 10.1667 14.1666Z" fill="#2EC4B6"/>
</svg>
