<svg width="25" height="24" viewBox="0 0 25 24" fill="none" xmlns="http://www.w3.org/2000/svg">
<path fill-rule="evenodd" clip-rule="evenodd" d="M12.5 4C16.9183 4 20.5 7.58172 20.5 12C20.5 13.2682 20.2056 14.4648 19.6824 15.5278C19.5384 15.8203 19.4863 16.162 19.5559 16.5014L20.2213 19.7434L16.8485 19.1123C16.525 19.0518 16.2011 19.1012 15.9212 19.2339C14.8851 19.7249 13.7261 20 12.5 20C8.08172 20 4.5 16.4183 4.5 12C4.5 7.58172 8.08172 4 12.5 4ZM22.5 12C22.5 6.47715 18.0228 2 12.5 2C6.97715 2 2.5 6.47715 2.5 12C2.5 17.5228 6.97715 22 12.5 22C13.973 22 15.374 21.6809 16.6356 21.1072L20.5848 21.8461C21.6322 22.0421 22.5442 21.114 22.33 20.0701L21.5485 16.2622C22.1591 14.9681 22.5 13.5225 22.5 12Z" fill="#697B7A"/>
</svg>
