<svg width="24" height="24" viewBox="0 0 24 24" fill="none" xmlns="http://www.w3.org/2000/svg">
<path fill-rule="evenodd" clip-rule="evenodd" d="M12 3C7.02944 3 3 7.02944 3 12C3 16.9706 7.02944 21 12 21C16.9706 21 21 16.9706 21 12C21 7.02944 16.9706 3 12 3ZM1 12C1 5.92487 5.92487 1 12 1C18.0751 1 23 5.92487 23 12C23 18.0751 18.0751 23 12 23C5.92487 23 1 18.0751 1 12Z" fill="#2EC4B6"/>
<path fill-rule="evenodd" clip-rule="evenodd" d="M18.7071 8.70706L10.7071 16.7071C10.3166 17.0976 9.68343 17.0976 9.29291 16.7071L5.79291 13.2071L7.20712 11.7928L10 14.5857L17.2929 7.29285L18.7071 8.70706Z" fill="#2EC4B6"/>
</svg>
