<svg width="24" height="24" viewBox="0 0 24 24" fill="none" xmlns="http://www.w3.org/2000/svg">
<path d="M20 11.506C20.003 12.6861 19.7273 13.8502 19.1953 14.9036C18.5644 16.1658 17.5946 17.2274 16.3945 17.9696C15.1944 18.7118 13.8113 19.1052 12.4002 19.1058C11.2201 19.1088 10.056 18.8331 9.00267 18.3011L3.90637 19.9999L5.60514 14.9036C5.0731 13.8502 4.79738 12.6861 4.80046 11.506C4.80101 10.0949 5.19441 8.71186 5.93659 7.51173C6.67878 6.31159 7.74045 5.34179 9.00267 4.71095C10.056 4.17891 11.2201 3.9032 12.4002 3.90628H12.8473C14.7108 4.00909 16.471 4.79568 17.7908 6.11544C19.1105 7.4352 19.8971 9.19539 20 11.059V11.506Z" stroke="#8A8A93" stroke-width="1.78818" stroke-linecap="round" stroke-linejoin="round"/>
</svg>
