<svg width="24" height="24" viewBox="0 0 24 24" fill="none" xmlns="http://www.w3.org/2000/svg">
<path fill-rule="evenodd" clip-rule="evenodd" d="M4 5C4 4.44772 4.44772 4 5 4H19C19.5523 4 20 4.44772 20 5C20 6.10457 20.8954 7 22 7C22.5523 7 23 7.44772 23 8V16C23 16.5523 22.5523 17 22 17C20.8954 17 20 17.8954 20 19C20 19.5523 19.5523 20 19 20H5C4.44772 20 4 19.5523 4 19C4 17.8954 3.10457 17 2 17C1.44772 17 1 16.5523 1 16V8C1 7.44772 1.44772 7 2 7C3.10457 7 4 6.10457 4 5ZM5.87398 6C5.5122 7.40561 4.40561 8.5122 3 8.87398V15.126C4.40561 15.4878 5.5122 16.5944 5.87398 18H18.126C18.4878 16.5944 19.5944 15.4878 21 15.126V8.87398C19.5944 8.5122 18.4878 7.40561 18.126 6H5.87398Z" fill="#2EC4B6"/>
<path fill-rule="evenodd" clip-rule="evenodd" d="M10 8.5C9.72386 8.5 9.5 8.72386 9.5 9C9.5 9.27614 9.72386 9.5 10 9.5C10.2761 9.5 10.5 9.27614 10.5 9C10.5 8.72386 10.2761 8.5 10 8.5ZM7.5 9C7.5 7.61929 8.61929 6.5 10 6.5C11.3807 6.5 12.5 7.61929 12.5 9C12.5 10.3807 11.3807 11.5 10 11.5C8.61929 11.5 7.5 10.3807 7.5 9Z" fill="#2EC4B6"/>
<path fill-rule="evenodd" clip-rule="evenodd" d="M14.5 14C14.2239 14 14 14.2239 14 14.5C14 14.7761 14.2239 15 14.5 15C14.7761 15 15 14.7761 15 14.5C15 14.2239 14.7761 14 14.5 14ZM12 14.5C12 13.1193 13.1193 12 14.5 12C15.8807 12 17 13.1193 17 14.5C17 15.8807 15.8807 17 14.5 17C13.1193 17 12 15.8807 12 14.5Z" fill="#2EC4B6"/>
<path fill-rule="evenodd" clip-rule="evenodd" d="M7.79291 14.7928L14.7929 7.79285L16.2071 9.20706L9.20712 16.2071L7.79291 14.7928Z" fill="#2EC4B6"/>
</svg>
