<svg width="42" height="42" viewBox="0 0 42 42" fill="none" xmlns="http://www.w3.org/2000/svg">
<rect width="42" height="42" rx="16" fill="#F6FBFA"/>
<path fill-rule="evenodd" clip-rule="evenodd" d="M21 12C16.0294 12 12 16.0294 12 21C12 25.9706 16.0294 30 21 30C25.9706 30 30 25.9706 30 21C30 16.0294 25.9706 12 21 12ZM10 21C10 14.9249 14.9249 10 21 10C27.0751 10 32 14.9249 32 21C32 27.0751 27.0751 32 21 32C14.9249 32 10 27.0751 10 21Z" fill="#2EC4B6"/>
<path fill-rule="evenodd" clip-rule="evenodd" d="M20.2222 15.8889C19.6699 15.8889 19.2222 16.3366 19.2222 16.8889V18.2222H17.2222V16.8889C17.2222 15.2321 18.5654 13.8889 20.2222 13.8889H21.7778C23.4346 13.8889 24.7778 15.2321 24.7778 16.8889V18.5049C24.7778 19.3006 24.4617 20.0636 23.8991 20.6263L22.2929 22.2325C22.1054 22.42 22 22.6743 22 22.9396V24.8889H20V22.9396C20 22.1439 20.3161 21.3809 20.8787 20.8182L22.4849 19.212C22.6724 19.0245 22.7778 18.7702 22.7778 18.5049V16.8889C22.7778 16.3366 22.3301 15.8889 21.7778 15.8889H20.2222Z" fill="#2EC4B6"/>
<path fill-rule="evenodd" clip-rule="evenodd" d="M20 28.2222V26H22V28.2222H20Z" fill="#2EC4B6"/>
</svg>
