<svg width="24" height="24" viewBox="0 0 24 24" fill="none" xmlns="http://www.w3.org/2000/svg">
<path fill-rule="evenodd" clip-rule="evenodd" d="M10.7778 7.875C10.7778 7.32272 11.2703 6.875 11.8778 6.875H20.6778C21.2853 6.875 21.7778 7.32272 21.7778 7.875C21.7778 8.42728 21.2853 8.875 20.6778 8.875H11.8778C11.2703 8.875 10.7778 8.42728 10.7778 7.875Z" fill="#697B7A"/>
<path fill-rule="evenodd" clip-rule="evenodd" d="M13 17.125C13 17.6773 12.5075 18.125 11.9 18.125L3.1 18.125C2.49249 18.125 2 17.6773 2 17.125C2 16.5727 2.49249 16.125 3.1 16.125L11.9 16.125C12.5075 16.125 13 16.5727 13 17.125Z" fill="#697B7A"/>
<path fill-rule="evenodd" clip-rule="evenodd" d="M6.00001 8.75C6.41422 8.75 6.75001 8.41421 6.75001 8C6.75001 7.58579 6.41422 7.25 6.00001 7.25C5.58579 7.25 5.25001 7.58579 5.25001 8C5.25001 8.41421 5.58579 8.75 6.00001 8.75ZM6.00001 11C7.65686 11 9.00001 9.65685 9.00001 8C9.00001 6.34315 7.65686 5 6.00001 5C4.34315 5 3.00001 6.34315 3.00001 8C3.00001 9.65685 4.34315 11 6.00001 11Z" fill="#697B7A"/>
<path fill-rule="evenodd" clip-rule="evenodd" d="M17.7778 16.25C17.3636 16.25 17.0278 16.5858 17.0278 17C17.0278 17.4142 17.3636 17.75 17.7778 17.75C18.192 17.75 18.5278 17.4142 18.5278 17C18.5278 16.5858 18.192 16.25 17.7778 16.25ZM17.7778 14C16.1209 14 14.7778 15.3431 14.7778 17C14.7778 18.6569 16.1209 20 17.7778 20C19.4346 20 20.7778 18.6569 20.7778 17C20.7778 15.3431 19.4346 14 17.7778 14Z" fill="#697B7A"/>
</svg>
