<svg width="24" height="24" viewBox="0 0 24 24" fill="none" xmlns="http://www.w3.org/2000/svg">
<path fill-rule="evenodd" clip-rule="evenodd" d="M12 3C7.02944 3 3 7.02944 3 12C3 16.9706 7.02944 21 12 21C16.9706 21 21 16.9706 21 12C21 7.02944 16.9706 3 12 3ZM1 12C1 5.92487 5.92487 1 12 1C18.0751 1 23 5.92487 23 12C23 18.0751 18.0751 23 12 23C5.92487 23 1 18.0751 1 12Z" fill="#2EC4B6"/>
<path fill-rule="evenodd" clip-rule="evenodd" d="M11.2222 6.88892C10.6699 6.88892 10.2222 7.33663 10.2222 7.88892V9.22225H8.22223V7.88892C8.22223 6.23206 9.56538 4.88892 11.2222 4.88892H12.7778C14.4346 4.88892 15.7778 6.23206 15.7778 7.88892V9.50493C15.7778 10.3006 15.4617 11.0636 14.8991 11.6263L13.2929 13.2325C13.1054 13.42 13 13.6743 13 13.9396V15.8889H11V13.9396C11 13.1439 11.3161 12.3809 11.8787 11.8182L13.4849 10.212C13.6724 10.0245 13.7778 9.77015 13.7778 9.50493V7.88892C13.7778 7.33663 13.3301 6.88892 12.7778 6.88892H11.2222Z" fill="#2EC4B6"/>
<path fill-rule="evenodd" clip-rule="evenodd" d="M11 19.2222V17H13V19.2222H11Z" fill="#2EC4B6"/>
</svg>
