<svg width="24" height="24" viewBox="0 0 24 24" fill="none" xmlns="http://www.w3.org/2000/svg">
<path fill-rule="evenodd" clip-rule="evenodd" d="M13.5 12C13.5 11.5807 13.3292 11.2031 13.051 10.9297L14.4525 9.50293C15.0978 10.1368 15.5 11.0223 15.5 12C15.5 13.933 13.933 15.5 12 15.5C11.0563 15.5 10.1982 15.1252 9.56958 14.5185L10.9585 13.0795C11.2292 13.3408 11.595 13.5 12 13.5C12.8284 13.5 13.5 12.8284 13.5 12Z" fill="#CED4D3"/>
<path fill-rule="evenodd" clip-rule="evenodd" d="M4.29285 18.293L18.2928 4.29297L19.7071 5.70718L5.70706 19.7072L4.29285 18.293Z" fill="#CED4D3"/>
<path fill-rule="evenodd" clip-rule="evenodd" d="M13.296 7.05245C12.9426 7.00197 12.5185 7 12 7C11.2746 7 10.4023 7.28817 9.44386 7.81417C8.49899 8.33271 7.55168 9.03705 6.69744 9.76231C5.84656 10.4847 5.10877 11.2101 4.58285 11.7562C4.53004 11.811 4.47942 11.864 4.4311 11.9149L6.65372 13.8351L5.34622 15.3485L2.35492 12.7642L2.35208 12.7618L2.35129 12.7611L2.34955 12.7596L2.34869 12.7589L2.34788 12.7581L2.3471 12.7575L2.34633 12.7568C1.92981 12.397 1.8823 11.7681 2.24016 11.3499L2.99997 12C2.24016 11.3499 2.24 11.35 2.24016 11.3499L2.24087 11.349L2.24205 11.3477L2.24581 11.3433L2.2589 11.3281L2.30679 11.2732C2.34818 11.226 2.40826 11.1581 2.48545 11.0725C2.63978 10.9014 2.86292 10.6589 3.14228 10.3688C3.6998 9.78992 4.48714 9.01529 5.40301 8.2377C6.31552 7.46296 7.37658 6.6673 8.48165 6.06084C9.57314 5.46184 10.7923 5 12 5L12.0361 5C12.5101 4.99995 13.0703 4.9999 13.5789 5.07256C14.0875 5.14521 14.7263 5.31217 15.2071 5.7929L13.7929 7.20711C13.7736 7.18784 13.6625 7.1048 13.296 7.05245ZM18.8267 11.1136C17.9524 10.2317 16.7778 9.15966 15.5318 8.33344L16.637 6.66657C18.0435 7.59915 19.3267 8.77715 20.247 9.70552C20.7103 10.1728 21.0882 10.5836 21.3514 10.8788C21.483 11.0265 21.5863 11.1456 21.6574 11.2287C21.693 11.2703 21.7206 11.3029 21.7397 11.3257L21.7619 11.3523L21.7682 11.3598L21.7709 11.3631C21.771 11.3633 21.7711 11.3634 21 12C21.7598 12.6501 21.7596 12.6503 21.7595 12.6505L21.7541 12.6567L21.741 12.6719L21.6931 12.7268C21.6518 12.774 21.5917 12.8419 21.5145 12.9275C21.3602 13.0986 21.137 13.3411 20.8577 13.6312C20.3001 14.2101 19.5128 14.9847 18.5969 15.7623C17.6844 16.537 16.6234 17.3327 15.5183 17.9392C14.4268 18.5382 13.2076 19 12 19C11.0913 19 10.2055 18.6779 9.41631 18.2726C8.61913 17.8632 7.83844 17.3251 7.13013 16.8073L8.31044 15.1927C8.99936 15.6963 9.67727 16.1583 10.33 16.4935C10.9907 16.8328 11.5461 17 12 17C12.7253 17 13.5976 16.7118 14.5561 16.1858C15.5009 15.6673 16.4483 14.963 17.3025 14.2377C18.1534 13.5153 18.8912 12.7899 19.4171 12.2438C19.504 12.1536 19.585 12.0684 19.6596 11.9891C19.4361 11.7441 19.1543 11.4441 18.8267 11.1136ZM21 12L21.7595 12.6505C22.0754 12.2813 22.0803 11.7379 21.7709 11.3631L21 12Z" fill="#CED4D3"/>
</svg>
