<svg width="25" height="24" viewBox="0 0 25 24" fill="none" xmlns="http://www.w3.org/2000/svg">
    <path fill-rule="evenodd" clip-rule="evenodd" d="M13.0547 4.57164C12.7188 4.3477 12.2812 4.3477 11.9453 4.57164L4.9453 9.2383C4.6671 9.42377 4.5 9.736 4.5 10.0704V19C4.5 19.5523 4.94772 20 5.5 20H8.5V16C8.5 14.3431 9.84315 13 11.5 13H13.5C15.1569 13 16.5 14.3431 16.5 16V20H19.5C20.0523 20 20.5 19.5523 20.5 19V10.0704C20.5 9.736 20.3329 9.42377 20.0547 9.2383L13.0547 4.57164ZM10.8359 2.90754C11.8436 2.23574 13.1564 2.23574 14.1641 2.90754L21.1641 7.5742C21.9987 8.1306 22.5 9.06729 22.5 10.0704V19C22.5 20.6568 21.1569 22 19.5 22H15.5C14.9477 22 14.5 21.5523 14.5 21V16C14.5 15.4477 14.0523 15 13.5 15H11.5C10.9477 15 10.5 15.4477 10.5 16V21C10.5 21.5523 10.0523 22 9.5 22H5.5C3.84315 22 2.5 20.6568 2.5 19V10.0704C2.5 9.06729 3.0013 8.1306 3.8359 7.5742L10.8359 2.90754Z" fill="#697B7A"/>
</svg>
