<svg width="25" height="24" viewBox="0 0 25 24" fill="none" xmlns="http://www.w3.org/2000/svg">
<path fill-rule="evenodd" clip-rule="evenodd" d="M14.1641 2.90754C13.1564 2.23574 11.8436 2.23574 10.8359 2.90754L3.8359 7.5742C3.0013 8.1306 2.5 9.06729 2.5 10.0704V19C2.5 20.6568 3.84315 22 5.5 22H9.5C10.0523 22 10.5 21.5523 10.5 21V16C10.5 15.4477 10.9477 15 11.5 15H13.5C14.0523 15 14.5 15.4477 14.5 16V21C14.5 21.5523 14.9477 22 15.5 22H19.5C21.1569 22 22.5 20.6568 22.5 19V10.0704C22.5 9.06729 21.9987 8.1306 21.1641 7.5742L14.1641 2.90754Z" fill="#2EC4B6"/>
</svg>
