<svg width="42" height="42" viewBox="0 0 42 42" fill="none" xmlns="http://www.w3.org/2000/svg">
<rect width="42" height="42" rx="16" fill="#F6FBFA"/>
<path fill-rule="evenodd" clip-rule="evenodd" d="M21 13C18.7909 13 17 14.7909 17 17C17 19.2091 18.7909 21 21 21C23.2091 21 25 19.2091 25 17C25 14.7909 23.2091 13 21 13ZM15 17C15 13.6863 17.6863 11 21 11C24.3137 11 27 13.6863 27 17C27 20.3137 24.3137 23 21 23C17.6863 23 15 20.3137 15 17Z" fill="#2EC4B6"/>
<path fill-rule="evenodd" clip-rule="evenodd" d="M15.638 26.8324C14.1211 27.3581 13.0484 28.0642 12.4795 28.785C12.4757 28.7898 12.4724 28.7943 12.4694 28.7983C12.4983 28.8327 12.556 28.883 12.6502 28.9261C12.7481 28.971 12.8686 29 13 29H29C29.1314 29 29.2519 28.971 29.3498 28.9261C29.4439 28.883 29.5017 28.8327 29.5306 28.7983C29.5276 28.7943 29.5243 28.7898 29.5205 28.785C28.9516 28.0642 27.8789 27.3581 26.362 26.8324C24.8637 26.3133 23.0151 26 21 26C18.9849 26 17.1363 26.3133 15.638 26.8324ZM29.5495 28.8301C29.5495 28.8301 29.5492 28.8294 29.5488 28.828C29.5494 28.8295 29.5496 28.8302 29.5495 28.8301ZM12.4504 28.8301C12.4504 28.8301 12.4506 28.8295 12.4512 28.8281L12.4504 28.8301ZM14.9832 24.9427C16.715 24.3426 18.7876 24 21 24C23.2124 24 25.285 24.3426 27.0168 24.9427C28.7299 25.5363 30.1962 26.4129 31.0904 27.5459C31.3879 27.9228 31.5542 28.367 31.5453 28.8368C31.5366 29.2987 31.3602 29.7055 31.1114 30.0238C30.6265 30.644 29.8233 31 29 31H13C12.1767 31 11.3735 30.644 10.8886 30.0238C10.6398 29.7055 10.4634 29.2987 10.4547 28.8368C10.4458 28.367 10.6121 27.9228 10.9096 27.5459C11.8038 26.4129 13.2701 25.5363 14.9832 24.9427Z" fill="#2EC4B6"/>
</svg>
