<svg width="132" height="111" viewBox="0 0 132 111" fill="none" xmlns="http://www.w3.org/2000/svg">
    <path d="M118.346 75.2263C123.4 82.8181 124.834 89.7169 124.457 95.4217C123.777 105.729 112.529 110 102.164 110H32.8747C27.0472 110 21.9226 105.608 19.7174 100.233C14.8159 88.2859 6.12238 73.0582 11.7749 58.4834C19.1246 39.5326 29.9654 43.0284 43.7461 26.6535C57.5268 10.2786 74.2474 9.91059 94.6428 23.1577C115.038 36.4048 104.381 54.2517 118.346 75.2263Z" fill="#F6FBFA"/>
    <path d="M129.556 94.4274C129.651 101.623 124.744 107.697 122.251 109.825H118.432C121.271 100.225 125.965 95.4515 128.596 93.8629C129.034 93.5984 129.549 93.9158 129.556 94.4274Z" fill="#092724"/>
    <path d="M129.959 70.8204C133.872 85.5325 124.01 102.957 119.769 109.443H111.175C114.866 81.6844 121.055 74.9381 128.878 70.3794C129.299 70.1346 129.835 70.3506 129.959 70.8204Z" fill="white"/>
    <path fill-rule="evenodd" clip-rule="evenodd" d="M129.071 70.7095C129.277 70.5892 129.531 70.697 129.59 70.9186C131.518 78.1665 130.057 86.1136 127.562 93.0878C125.113 99.9328 121.683 105.796 119.562 109.061H111.611C113.448 95.4521 115.89 86.9968 118.816 81.3879C121.761 75.74 125.205 72.9617 129.071 70.7095ZM130.329 70.7223C130.138 70.0042 129.32 69.6802 128.686 70.0494C124.728 72.356 121.166 75.2302 118.138 81.0347C115.121 86.8191 112.644 95.4968 110.796 109.393L110.739 109.825H119.975L120.088 109.652C122.218 106.395 125.761 100.389 128.281 93.3451C130.799 86.3076 132.314 78.1866 130.329 70.7223Z" fill="#092724"/>
    <path d="M116.103 79.8715C119.483 92.2005 115.614 105.013 113.084 109.825H106.782C105.365 94.7992 111.126 83.8726 114.914 79.5772C115.288 79.1534 115.954 79.3266 116.103 79.8715Z" fill="#092724"/>
    <path fill-rule="evenodd" clip-rule="evenodd" d="M124.61 81.289L126.666 75.5129L127.385 75.7691L122.676 88.9992L125.77 88.0703L125.99 88.802L122.359 89.8922L118.076 101.925L121.93 100.491L122.197 101.207L117.741 102.864L115.354 109.571L114.634 109.315L119.483 95.6932L117.69 90.6651L118.41 90.4086L119.888 94.555L124.177 82.5058L122.84 78.0422L123.572 77.8231L124.61 81.289Z" fill="#092724"/>
    <path fill-rule="evenodd" clip-rule="evenodd" d="M112.88 89.7164L113.855 84.3574L114.606 84.4941L112.628 95.3716L115.198 94.0184L115.554 94.6943L112.455 96.3264L110.759 105.656L112.883 103.987L113.355 104.587L110.552 106.789L110.023 109.702L109.271 109.566L110.63 102.093L108.389 99.1721L108.995 98.7072L110.814 101.079L112.709 90.6563L110.895 88.6956L111.455 88.1767L112.88 89.7164Z" fill="white"/>
    <path d="M86.9038 5.08338L87.3247 3.04108C87.3996 2.67736 87.897 2.62372 88.0478 2.9631L88.8746 4.82403C88.9246 4.93663 89.0259 5.01818 89.1465 5.04304L91.3291 5.49283C91.6806 5.56527 91.7472 6.03858 91.4293 6.2052L89.4343 7.25096C89.3373 7.3018 89.2668 7.39184 89.2407 7.49819L88.6508 9.90142C88.5632 10.2583 88.0714 10.2977 87.9281 9.95924L87.0238 7.82263C86.9797 7.71854 86.8918 7.63932 86.7838 7.60626L84.3701 6.86798C84.0151 6.7594 84.0081 6.25939 84.3598 6.14081L86.6517 5.36822C86.7804 5.32484 86.8764 5.21639 86.9038 5.08338Z" fill="#FF9F1C"/>
    <path d="M107.446 20.5825L107.852 20.0453C108.076 19.7491 108.548 19.9144 108.539 20.2856L108.522 20.9389C108.519 21.0621 108.575 21.1792 108.673 21.2535L109.325 21.746C109.611 21.9624 109.468 22.4184 109.109 22.4323L108.269 22.4649C108.16 22.4691 108.057 22.5201 107.988 22.605L107.393 23.3333C107.161 23.6179 106.7 23.4422 106.716 23.075L106.753 22.23C106.758 22.1171 106.712 22.0078 106.629 21.9315L105.927 21.2889C105.653 21.0384 105.861 20.5838 106.23 20.6279L107.096 20.7314C107.231 20.7475 107.364 20.6908 107.446 20.5825Z" fill="#FF9F1C"/>
    <path d="M44.2853 43.4492L43.2772 44.7706C43.2159 44.851 43.1159 44.8897 43.0179 44.8709L41.772 44.632C41.504 44.5806 41.3422 44.9254 41.5491 45.1072L42.5283 45.9681C42.5998 46.0309 42.6336 46.1277 42.6171 46.2227L42.3715 47.6421C42.3253 47.9089 42.6463 48.0741 42.828 47.877L43.8338 46.7862C43.8929 46.7221 43.9785 46.6912 44.0638 46.7031L45.2278 46.8653C45.4901 46.9019 45.6386 46.5674 45.4392 46.3893L44.5735 45.6161C44.504 45.554 44.4707 45.4595 44.4857 45.3663L44.7586 43.6613C44.8033 43.3825 44.4552 43.2265 44.2853 43.4492Z" fill="white"/>
    <path fill-rule="evenodd" clip-rule="evenodd" d="M73.5245 24.0625C61.4714 24.0625 51.7004 33.8181 51.7004 45.8523V62.6244C51.7004 63.3712 52.3068 63.9766 53.0547 63.9766H56.873C57.6209 63.9766 58.2273 63.3712 58.2273 62.6244V45.445C58.2273 37.0099 65.0761 30.1718 73.5245 30.1718C81.973 30.1718 88.8218 37.0099 88.8218 45.445V61.1076C88.8218 61.8543 89.4281 62.4597 90.1761 62.4597H93.9944C94.7423 62.4597 95.3486 61.8543 95.3486 61.1075V45.8523C95.3486 33.8181 85.5777 24.0625 73.5245 24.0625Z" fill="#092724"/>
    <path d="M43.5417 60.4413C43.5417 59.6945 44.1481 59.0891 44.896 59.0891H102.153C102.901 59.0891 103.507 59.6945 103.507 60.4413V108.648C103.507 109.395 102.901 110 102.153 110H44.896C44.1481 110 43.5417 109.395 43.5417 108.648V60.4413Z" fill="white"/>
    <path fill-rule="evenodd" clip-rule="evenodd" d="M43.0903 60.4413C43.0903 59.4456 43.8988 58.6384 44.896 58.6384H102.153C103.15 58.6384 103.958 59.4456 103.958 60.4413V108.648C103.958 109.643 103.15 110.451 102.153 110.451H44.896C43.8988 110.451 43.0903 109.643 43.0903 108.648V60.4413ZM44.896 59.5399C44.3974 59.5399 43.9932 59.9434 43.9932 60.4413V108.648C43.9932 109.146 44.3974 109.549 44.896 109.549H102.153C102.651 109.549 103.056 109.146 103.056 108.648V60.4413C103.056 59.9434 102.651 59.5399 102.153 59.5399H44.896Z" fill="#092724"/>
    <path fill-rule="evenodd" clip-rule="evenodd" d="M76.9745 85.9792C78.2288 84.9714 79.0314 83.426 79.0314 81.6934C79.0314 78.6568 76.5658 76.1951 73.5243 76.1951C70.4829 76.1951 68.0173 78.6568 68.0173 81.6934C68.0173 83.5808 68.9697 85.246 70.4208 86.2362L69.1921 91.3889C69.009 92.1567 69.5921 92.8938 70.3826 92.8938H77.0741C77.8646 92.8938 78.4477 92.1567 78.2646 91.3889L76.9745 85.9792Z" fill="#FF9F1C"/>
    <path d="M129.861 44.8785C129.861 52.156 123.962 58.0556 116.684 58.0556C114.171 58.0556 111.822 57.3519 109.823 56.1308L106.037 57.4737C105.323 57.7271 104.608 57.096 104.771 56.3557L105.698 52.1568C104.313 50.0714 103.507 47.5691 103.507 44.8785C103.507 37.601 109.407 31.7014 116.684 31.7014C123.962 31.7014 129.861 37.601 129.861 44.8785Z" fill="white"/>
    <path fill-rule="evenodd" clip-rule="evenodd" d="M116.684 32.0233C123.784 32.0233 129.539 37.7788 129.539 44.8786C129.539 51.9783 123.784 57.7338 116.684 57.7338C114.232 57.7338 111.94 57.0473 109.991 55.8562L109.86 55.7763L105.929 57.1704C105.453 57.3394 104.977 56.9186 105.086 56.4251L106.042 52.0927L105.966 51.9789C104.616 49.9446 103.829 47.5039 103.829 44.8786C103.829 37.7788 109.584 32.0233 116.684 32.0233ZM130.183 44.8786C130.183 37.4233 124.139 31.3796 116.684 31.3796C109.229 31.3796 103.185 37.4233 103.185 44.8786C103.185 47.5853 103.982 50.1067 105.354 52.22L104.457 56.2864C104.239 57.2735 105.192 58.115 106.145 57.7771L109.787 56.4851C111.806 57.6871 114.165 58.3775 116.684 58.3775C124.139 58.3775 130.183 52.3338 130.183 44.8786Z" fill="#092724"/>
    <path fill-rule="evenodd" clip-rule="evenodd" d="M124.901 42.029L114.21 51.2347L109.031 44.1136L111.566 42.2704L114.743 46.6399L122.856 39.6543L124.901 42.029Z" fill="#FF9F1C"/>
    <path fill-rule="evenodd" clip-rule="evenodd" d="M33.6216 30.4658V33.2457C33.6216 33.8948 32.8319 34.2342 32.3422 33.7956L25.0741 27.2861C24.744 26.9904 24.744 26.482 25.0741 26.1863L32.3422 19.6768C32.8319 19.2382 33.6216 19.5776 33.6216 20.2266V23.0065H50.4168V30.4658H33.6216Z" fill="#FF9F1C"/>
    <path d="M24.2792 57.2318L23.392 60.657C22.9484 62.3697 24.3742 64.3675 28.26 64.3154C31.3687 64.2737 31.7964 61.3718 31.6217 59.926L30.7929 56.0583C31.5597 55.2722 32.1753 54.7985 32.1257 51.0755C32.0637 46.4218 29.5541 44.7487 26.6009 44.7883C23.6477 44.828 21.1938 47.3407 21.2536 51.842C21.3051 55.7201 23.3943 56.9333 24.2792 57.2318Z" fill="#EFCB96"/>
    <path d="M15.0188 63.8485C13.8506 60.8387 14.2667 56.3821 16.5984 53.8543C19.5131 50.6945 16.3473 46.6802 19.8926 44.1361C21.124 43.121 22.1593 42.9615 22.5231 43.0086C23.0756 41.6489 25.1244 39.697 27.313 40.4478C28.5661 41.0552 29.205 42.2949 30.2983 42.5922C31.3916 42.8896 33.1168 43.0794 34.0594 44.5702C35.3311 46.5816 33.6404 48.1645 34.9266 51.2679C36.2129 54.3713 40.1205 55.6725 39.7202 60.6709C38.4553 60.1738 35.2063 59.7206 32.3103 59.7413C32.2571 60.0677 31.8874 60.6086 31.7092 60.8383L31.4908 59.7607C31.4941 60.0057 29.9748 53.3628 29.9748 53.3628C29.9748 53.3628 31.766 52.3089 31.4954 50.6898C31.1572 48.6659 29.759 48.8407 29.006 50.7232C28.8532 50.9333 28.3886 51.106 27.753 50.1159C26.9584 48.8783 26.1018 45.767 23.6145 45.9564C22.5725 46.7223 21.5785 48.0514 21.436 51.4368C21.6394 55.0228 22.6594 56.4214 24.3274 57.2252L23.7978 59.6759L23.3642 61.0057C23.0173 60.6044 22.7746 60.0457 22.6966 59.8165C20.3928 60.2845 17.1534 61.8528 15.0188 63.8485Z" fill="#092724"/>
    <path d="M27.6991 56.8041C26.396 57.5734 24.6426 57.4061 24.3275 57.2253L23.7898 59.1122C25.7947 59.3813 27.2937 57.6731 27.6991 56.8041Z" fill="#092724"/>
    <path d="M27.371 62.6779C30.3084 62.6779 31.8773 60.95 32.2111 59.8352C36.8842 59.8352 44.8952 61.0057 49.0676 64.8517C55.0141 70.333 61.5849 87.5931 61.0842 94.4489C60.6836 99.9336 57.1343 107.102 55.4097 110H0C2.89288 103.59 6.60911 90.4023 7.00966 88.9308C7.51035 87.0914 9.68001 73.7141 12.0166 68.0288C13.8858 63.4805 19.6938 60.3369 22.6979 59.8352C23.143 60.95 24.4337 62.6779 27.371 62.6779Z" fill="#FF9F1C"/>
    <path d="M14.1865 74.0486L9.68025 110H7.67749L14.1865 74.0486Z" fill="#092724"/>
    <path d="M47.2319 95.1179C47.2319 96.0543 44.8953 105.43 43.7271 110H41.8912L46.2305 95.1179C45.4294 92.5762 42.0581 84.7505 41.3905 80.7373C41.8912 83.7472 47.2319 93.9474 47.2319 95.1179Z" fill="#092724"/>
    <path d="M59.4145 101.305C57.4118 95.0176 59.0251 89.2096 60.0821 87.0916C60.4716 88.2621 61.2172 91.3723 61.0837 94.4491C60.9501 97.5258 59.9153 100.302 59.4145 101.305Z" fill="#092724"/>
</svg>
