<svg width="42" height="42" viewBox="0 0 42 42" fill="none" xmlns="http://www.w3.org/2000/svg">
<rect width="42" height="42" rx="16" fill="#FBECEC"/>
<path fill-rule="evenodd" clip-rule="evenodd" d="M23.5 22H11.5V20H23.5V22Z" fill="#D64545"/>
<path fill-rule="evenodd" clip-rule="evenodd" d="M20.7071 16.793L24.2071 20.293C24.5976 20.6835 24.5976 21.3167 24.2071 21.7072L20.7071 25.2072L19.2929 23.793L22.0858 21.0001L19.2929 18.2072L20.7071 16.793Z" fill="#D64545"/>
<path fill-rule="evenodd" clip-rule="evenodd" d="M22.5 14C19.7824 14 17.4248 15.5484 16.2643 17.8157L14.484 16.9044C15.9731 13.995 19.0027 12 22.5 12C27.4706 12 31.5 16.0294 31.5 21C31.5 25.9706 27.4706 30 22.5 30C19.0027 30 15.9731 28.005 14.484 25.0956L16.2643 24.1843C17.4248 26.4516 19.7824 28 22.5 28C26.366 28 29.5 24.866 29.5 21C29.5 17.134 26.366 14 22.5 14Z" fill="#D64545"/>
</svg>
