<svg width="33" height="24" viewBox="0 0 33 24" fill="none" xmlns="http://www.w3.org/2000/svg">
    <path d="M27.4889 10.5171C27.3941 10.487 27.2912 10.4958 27.2029 10.5415C27.1146 10.5872 27.048 10.6661 27.0179 10.7609C26.9877 10.8557 26.9965 10.9585 27.0422 11.0469C27.0879 11.1352 27.1669 11.2018 27.2616 11.2319C30.1926 12.1656 31.4999 13.5584 31.4999 15.7499C31.4999 17.6991 29.7216 19.2119 28.6626 19.9409C28.6125 19.9753 28.5714 20.0215 28.5431 20.0753C28.5147 20.1291 28.4999 20.189 28.4999 20.2499V23.1171C27.5994 22.7756 26.7949 22.221 26.1554 21.5009C26.112 21.4526 26.0569 21.4163 25.9955 21.3954C25.934 21.3745 25.8682 21.3698 25.8044 21.3816C25.5906 21.4229 25.3724 21.4814 25.1511 21.5406C24.7686 21.6434 24.3741 21.7499 23.9999 21.7499C22.0739 21.7499 20.7254 21.3359 19.3469 20.3226C19.2667 20.2637 19.1664 20.2389 19.068 20.2539C18.9696 20.2689 18.8812 20.3224 18.8223 20.4025C18.7633 20.4827 18.7386 20.583 18.7535 20.6814C18.7685 20.7798 18.822 20.8682 18.9021 20.9271C20.4224 22.0446 21.8991 22.4999 23.9999 22.4999C24.4731 22.4999 24.9171 22.3806 25.3461 22.2651C25.4796 22.2284 25.6124 22.1924 25.7436 22.1616C27.1454 23.6421 28.7309 23.9789 28.7999 23.9924C28.8544 24.0037 28.9107 24.0027 28.9647 23.9893C29.0187 23.9759 29.069 23.9506 29.1119 23.9151C29.155 23.8801 29.1898 23.8358 29.2137 23.7856C29.2376 23.7354 29.2499 23.6805 29.2499 23.6249V20.4456C31.1864 19.0649 32.2499 17.4029 32.2499 15.7499C32.2499 13.2141 30.7371 11.5514 27.4889 10.5171Z" fill="#8A8A93"/>
    <path d="M25.5 10.125C25.5 4.353 20.2365 0 13.2577 0C6.24375 0 0.75 4.44825 0.75 10.1265C0.75 13.5308 3.15825 15.9697 5.25 17.4457V22.4227C5.25039 22.4852 5.26631 22.5466 5.29634 22.6014C5.32637 22.6562 5.36956 22.7026 5.42201 22.7365C5.47447 22.7705 5.53454 22.7908 5.59682 22.7957C5.65909 22.8007 5.72162 22.79 5.77875 22.7648C5.88825 22.716 8.448 21.5527 10.638 19.158C11.5868 19.3343 12.66 19.5037 13.6335 19.5037C20.7307 19.5037 25.5 15.7343 25.5 10.125ZM13.6327 18.7537C12.6503 18.7537 11.5335 18.5655 10.5705 18.3818C10.5067 18.37 10.4409 18.3748 10.3795 18.3957C10.318 18.4166 10.263 18.4528 10.2195 18.501C8.682 20.235 6.87525 21.3368 6 21.8115V17.25C5.99998 17.1892 5.98515 17.1292 5.95679 17.0754C5.92844 17.0216 5.88741 16.9754 5.83725 16.941C3.85875 15.5797 1.5 13.2937 1.5 10.1265C1.5 4.86825 6.6645 0.75 13.2577 0.75C19.8097 0.75 24.75 4.7805 24.75 10.125C24.75 15.2865 20.2822 18.7537 13.6327 18.7537Z" fill="#8A8A93"/>
    <path d="M13.125 8.625C12.2977 8.625 11.625 9.29775 11.625 10.125C11.625 10.9523 12.2977 11.625 13.125 11.625C13.9523 11.625 14.625 10.9523 14.625 10.125C14.625 9.29775 13.9523 8.625 13.125 8.625ZM13.125 10.875C12.9319 10.8664 12.7496 10.7836 12.616 10.6439C12.4824 10.5042 12.4078 10.3183 12.4078 10.125C12.4078 9.9317 12.4824 9.74584 12.616 9.60614C12.7496 9.46643 12.9319 9.38364 13.125 9.375C13.3181 9.38364 13.5004 9.46643 13.634 9.60614C13.7676 9.74584 13.8422 9.9317 13.8422 10.125C13.8422 10.3183 13.7676 10.5042 13.634 10.6439C13.5004 10.7836 13.3181 10.8664 13.125 10.875ZM18.375 8.625C17.5477 8.625 16.875 9.29775 16.875 10.125C16.875 10.9523 17.5477 11.625 18.375 11.625C19.2023 11.625 19.875 10.9523 19.875 10.125C19.875 9.29775 19.2023 8.625 18.375 8.625ZM18.375 10.875C18.1819 10.8664 17.9996 10.7836 17.866 10.6439C17.7324 10.5042 17.6578 10.3183 17.6578 10.125C17.6578 9.9317 17.7324 9.74584 17.866 9.60614C17.9996 9.46643 18.1819 9.38364 18.375 9.375C18.5681 9.38364 18.7504 9.46643 18.884 9.60614C19.0176 9.74584 19.0922 9.9317 19.0922 10.125C19.0922 10.3183 19.0176 10.5042 18.884 10.6439C18.7504 10.7836 18.5681 10.8664 18.375 10.875ZM7.875 8.69625C7.04775 8.69625 6.375 9.369 6.375 10.1963C6.375 11.0235 7.04775 11.6963 7.875 11.6963C8.70225 11.6963 9.375 11.0235 9.375 10.1963C9.375 9.369 8.70225 8.69625 7.875 8.69625ZM7.875 10.9463C7.68189 10.9376 7.49955 10.8548 7.36596 10.7151C7.23236 10.5754 7.1578 10.3896 7.1578 10.1963C7.1578 10.0029 7.23236 9.81709 7.36596 9.67739C7.49955 9.53768 7.68189 9.45489 7.875 9.44625C8.06811 9.45489 8.25045 9.53768 8.38404 9.67739C8.51764 9.81709 8.5922 10.0029 8.5922 10.1963C8.5922 10.3896 8.51764 10.5754 8.38404 10.7151C8.25045 10.8548 8.06811 10.9376 7.875 10.9463Z" fill="#8A8A93"/>
</svg>
