<svg width="140" height="136" viewBox="0 0 140 136" fill="none" xmlns="http://www.w3.org/2000/svg">
<path d="M37.4059 136H73.0109H94.7369C104.612 136 114.135 132.338 121.453 125.727L130.496 117.557C142.761 106.477 143.218 87.4149 131.5 75.7625C127.003 71.2911 124.107 65.4684 123.259 59.1931L120.416 38.1626C119.135 28.6835 114.461 19.9854 107.255 13.6708L100.599 7.83759C86.7791 -4.27396 65.5415 -2.08628 54.4969 12.5866L53.8998 13.3798C48.3119 20.8034 39.5455 25.1719 30.2362 25.1719C15.1707 25.1719 2.51095 36.4589 0.833609 51.3863L0.222178 56.8277C-0.655132 64.6352 1.08095 72.5129 5.1602 79.2346L11.0168 88.8851C14.2485 94.2101 15.2821 100.577 13.9 106.647C10.476 121.684 21.9401 136 37.4059 136Z" fill="#F6FBFA"/>
<path d="M83.836 103.803C83.836 112.748 76.4121 120 67.2543 120C58.0964 120 50.6725 112.748 50.6725 103.803C50.6725 94.858 58.0964 87.6064 67.2543 87.6064C76.4121 87.6064 83.836 94.858 83.836 103.803Z" fill="#D5F3F0"/>
<path d="M23.7032 105.508H113.424C114.719 105.508 115.604 104.231 115.123 103.057L111.451 94.0896C108.775 87.5546 107.4 80.5807 107.4 73.5422V59.9018C107.4 38.9511 90.0121 21.9673 68.5635 21.9673C47.1148 21.9673 29.7272 38.9511 29.7272 59.9018V73.5422C29.7272 80.5807 28.3522 87.5546 25.676 94.0897L22.0039 103.057C21.523 104.231 22.4084 105.508 23.7032 105.508Z" fill="#2EC4B6"/>
<path d="M117 36.4591C117 47.7583 107.622 56.9181 96.0547 56.9181C84.4868 56.9181 75.1093 47.7583 75.1093 36.4591C75.1093 25.1598 84.4868 16 96.0547 16C107.622 16 117 25.1598 117 36.4591Z" fill="white"/>
<path fill-rule="evenodd" clip-rule="evenodd" d="M96.0546 16.8568C84.9712 16.8568 75.9864 25.633 75.9864 36.4591C75.9864 47.2851 84.9712 56.0613 96.0546 56.0613C107.138 56.0613 116.123 47.2851 116.123 36.4591C116.123 25.633 107.138 16.8568 96.0546 16.8568ZM74.2321 36.4591C74.2321 24.6866 84.0024 15.1432 96.0546 15.1432C108.107 15.1432 117.877 24.6866 117.877 36.4591C117.877 48.2315 108.107 57.7749 96.0546 57.7749C84.0024 57.7749 74.2321 48.2315 74.2321 36.4591Z" fill="#2EC4B6"/>
<path fill-rule="evenodd" clip-rule="evenodd" d="M93.0913 37.7699C93.4339 37.4353 93.4339 36.8928 93.0913 36.5582L85.7524 29.3897C85.4098 29.0551 85.4098 28.5126 85.7524 28.178L87.5762 26.3966C87.9187 26.062 88.4741 26.062 88.8167 26.3966L96.1556 33.5651C96.4982 33.8997 97.0536 33.8997 97.3961 33.5651L104.735 26.3966C105.078 26.062 105.633 26.062 105.976 26.3966L107.799 28.178C108.142 28.5126 108.142 29.0551 107.799 29.3897L100.46 36.5582C100.118 36.8928 100.118 37.4353 100.46 37.7699L107.799 44.9385C108.142 45.2731 108.142 45.8156 107.799 46.1502L105.976 47.9316C105.633 48.2662 105.078 48.2662 104.735 47.9316L97.3961 40.7631C97.0536 40.4285 96.4982 40.4285 96.1556 40.7631L88.8167 47.9316C88.4741 48.2662 87.9187 48.2662 87.5762 47.9316L85.7524 46.1502C85.4098 45.8156 85.4098 45.2731 85.7524 44.9385L93.0913 37.7699Z" fill="#D64545"/>
</svg>
