<svg width="42" height="42" viewBox="0 0 42 42" fill="none" xmlns="http://www.w3.org/2000/svg">
    <rect x="0.5" y="0.5" width="41" height="41" rx="15.5" stroke="#F4F4F4"/>
    <path fill-rule="evenodd" clip-rule="evenodd" d="M14.394 17.5558C14.8468 15.2016 16.9067 13.5 19.3041 13.5H22.6959C25.0933 13.5 27.1532 15.2016 27.606 17.5558L29.482 27.3112C29.5383 27.6041 29.461 27.9069 29.271 28.1368C29.081 28.3668 28.7983 28.5 28.5 28.5H13.5C13.2017 28.5 12.919 28.3668 12.729 28.1368C12.539 27.9069 12.4617 27.6041 12.518 27.3112L14.394 17.5558ZM19.3041 15.5C17.8657 15.5 16.6297 16.5209 16.358 17.9335L14.7106 26.5H27.2894L25.642 17.9335C25.3703 16.5209 24.1343 15.5 22.6959 15.5H19.3041Z" fill="#697B7A"/>
    <path fill-rule="evenodd" clip-rule="evenodd" d="M31 28.5H11V26.5H31V28.5Z" fill="#697B7A"/>
    <path fill-rule="evenodd" clip-rule="evenodd" d="M17 27.5C17 26.9477 17.4477 26.5 18 26.5H24C24.5523 26.5 25 26.9477 25 27.5V28.5C25 30.1569 23.6569 31.5 22 31.5H20C18.3431 31.5 17 30.1569 17 28.5V27.5ZM19 28.5C19 29.0523 19.4477 29.5 20 29.5H22C22.5523 29.5 23 29.0523 23 28.5H19Z" fill="#697B7A"/>
    <path fill-rule="evenodd" clip-rule="evenodd" d="M18 14.5C18 15.0523 18.4477 15.5 19 15.5H23C23.5523 15.5 24 15.0523 24 14.5V13.5C24 11.8431 22.6569 10.5 21 10.5C19.3431 10.5 18 11.8431 18 13.5V14.5ZM20 13.5C20 12.9477 20.4477 12.5 21 12.5C21.5523 12.5 22 12.9477 22 13.5H20Z" fill="#697B7A"/>
    <path d="M31 16C31 18.2091 29.2091 20 27 20C24.7909 20 23 18.2091 23 16C23 13.7909 24.7909 12 27 12C29.2091 12 31 13.7909 31 16Z" fill="#D64545"/>
    <path fill-rule="evenodd" clip-rule="evenodd" d="M27 19C28.6569 19 30 17.6569 30 16C30 14.3431 28.6569 13 27 13C25.3431 13 24 14.3431 24 16C24 17.6569 25.3431 19 27 19ZM27 20C29.2091 20 31 18.2091 31 16C31 13.7909 29.2091 12 27 12C24.7909 12 23 13.7909 23 16C23 18.2091 24.7909 20 27 20Z" fill="white"/>
</svg>
