<svg width="42" height="42" viewBox="0 0 42 42" fill="none" xmlns="http://www.w3.org/2000/svg">
<rect width="42" height="42" rx="16" fill="#F6FBFA"/>
<path fill-rule="evenodd" clip-rule="evenodd" d="M12 19C12 17.3431 13.3431 16 15 16H27C28.6569 16 30 17.3431 30 19V29C30 30.6569 28.6569 32 27 32H15C13.3431 32 12 30.6569 12 29V19ZM15 18C14.4477 18 14 18.4477 14 19V29C14 29.5523 14.4477 30 15 30H27C27.5523 30 28 29.5523 28 29V19C28 18.4477 27.5523 18 27 18H15Z" fill="#2EC4B6"/>
<path fill-rule="evenodd" clip-rule="evenodd" d="M17.6639 12C17.1116 12 16.6639 12.4477 16.6639 13V17.3781H14.6639V13C14.6639 11.3431 16.007 10 17.6639 10H24.1008C25.7577 10 27.1008 11.3431 27.1008 13V17.3781H25.1008V13C25.1008 12.4477 24.6531 12 24.1008 12H17.6639Z" fill="#2EC4B6"/>
<path fill-rule="evenodd" clip-rule="evenodd" d="M21 22.5C20.7239 22.5 20.5 22.7239 20.5 23C20.5 23.2761 20.7239 23.5 21 23.5C21.2761 23.5 21.5 23.2761 21.5 23C21.5 22.7239 21.2761 22.5 21 22.5ZM18.5 23C18.5 21.6193 19.6193 20.5 21 20.5C22.3807 20.5 23.5 21.6193 23.5 23C23.5 24.3807 22.3807 25.5 21 25.5C19.6193 25.5 18.5 24.3807 18.5 23Z" fill="#2EC4B6"/>
<path fill-rule="evenodd" clip-rule="evenodd" d="M20 27.5V24H22V27.5H20Z" fill="#2EC4B6"/>
</svg>
