<svg width="24" height="24" viewBox="0 0 24 24" fill="none" xmlns="http://www.w3.org/2000/svg">
<path fill-rule="evenodd" clip-rule="evenodd" d="M12 3C7.02944 3 3 7.02944 3 12C3 16.9706 7.02944 21 12 21C16.9706 21 21 16.9706 21 12C21 7.02944 16.9706 3 12 3ZM1 12C1 5.92487 5.92487 1 12 1C18.0751 1 23 5.92487 23 12C23 18.0751 18.0751 23 12 23C5.92487 23 1 18.0751 1 12Z" fill="#2EC4B6"/>
<path fill-rule="evenodd" clip-rule="evenodd" d="M6.71411 7.23804C6.71411 6.68575 7.16183 6.23804 7.71411 6.23804H10.5713C11.1235 6.23804 11.5713 6.68575 11.5713 7.23804V16.7618C11.5713 17.3141 11.1235 17.7618 10.5713 17.7618H7.71411C7.16183 17.7618 6.71411 17.3141 6.71411 16.7618V7.23804ZM8.71411 8.23804V15.7618H9.57125V8.23804H8.71411Z" fill="#2EC4B6"/>
<path fill-rule="evenodd" clip-rule="evenodd" d="M12.4286 7.23804C12.4286 6.68575 12.8764 6.23804 13.4286 6.23804H16.2858C16.8381 6.23804 17.2858 6.68575 17.2858 7.23804V16.7618C17.2858 17.3141 16.8381 17.7618 16.2858 17.7618H13.4286C12.8764 17.7618 12.4286 17.3141 12.4286 16.7618V7.23804ZM14.4286 8.23804V15.7618H15.2858V8.23804H14.4286Z" fill="#2EC4B6"/>
</svg>
