<svg width="16" height="18" viewBox="0 0 16 18" fill="none" xmlns="http://www.w3.org/2000/svg">
<path d="M11.0712 1.66224C11.2475 1.45229 11.4569 1.28574 11.6873 1.17211C11.9177 1.05848 12.1646 1 12.414 1C12.6634 1 12.9103 1.05848 13.1407 1.17211C13.3711 1.28574 13.5805 1.45229 13.7568 1.66224C13.9332 1.8722 14.073 2.12146 14.1685 2.39578C14.2639 2.6701 14.313 2.96412 14.313 3.26104C14.313 3.55797 14.2639 3.85198 14.1685 4.12631C14.073 4.40063 13.9332 4.64988 13.7568 4.85984L4.69276 15.6517L1 16.8508L2.00712 12.4541L11.0712 1.66224Z" stroke="#52526C" stroke-width="1.5988" stroke-linecap="round" stroke-linejoin="round"/>
</svg>
