<svg width="24" height="24" viewBox="0 0 24 24" fill="none" xmlns="http://www.w3.org/2000/svg">
<path fill-rule="evenodd" clip-rule="evenodd" d="M7.45783 5.0472C7.39489 4.98426 7.29285 4.98426 7.22991 5.0472L5.83876 6.43835C4.99478 7.28233 4.76286 8.5613 5.25676 9.64788C7.08932 13.6795 10.3205 16.9107 14.3521 18.7432C15.4387 19.2371 16.7177 19.0052 17.5616 18.1612L18.9528 16.7701C19.0157 16.7071 19.0157 16.6051 18.9528 16.5422L17.0814 14.6708C17.0323 14.6217 16.9574 14.6095 16.8953 14.6406L15.8568 15.1599C14.5777 15.7994 13.0329 15.5487 12.0217 14.5375L9.46249 11.9783C8.4513 10.9671 8.20061 9.42229 8.84015 8.14323L9.35944 7.10466C9.39046 7.04261 9.3783 6.96767 9.32925 6.91862L7.45783 5.0472ZM5.81569 3.63299C6.65968 2.789 8.02806 2.789 8.87205 3.63299L10.7435 5.5044C11.4012 6.16218 11.5643 7.16706 11.1483 7.99908L10.629 9.03766C10.3745 9.54674 10.4742 10.1616 10.8767 10.5641L13.4359 13.1233C13.8384 13.5258 14.4533 13.6255 14.9623 13.371L16.0009 12.8517C16.8329 12.4357 17.8378 12.5988 18.4956 13.2565L20.367 15.128C21.211 15.9719 21.211 17.3403 20.367 18.1843L18.9759 19.5755C17.5424 21.0089 15.3701 21.4029 13.5245 20.564C9.05267 18.5313 5.46868 14.9473 3.43603 10.4755C2.59714 8.62994 2.99106 6.45762 4.42454 5.02414L5.81569 3.63299Z" fill="#697B7A"/>
</svg>
