<svg width="25" height="24" viewBox="0 0 25 24" fill="none" xmlns="http://www.w3.org/2000/svg">
<path d="M20.5 12C20.5 16.4183 16.9183 20 12.5 20C8.08172 20 4.5 16.4183 4.5 12C4.5 7.58172 8.08172 4 12.5 4C16.9183 4 20.5 7.58172 20.5 12Z" fill="white"/>
<path fill-rule="evenodd" clip-rule="evenodd" d="M1.5 12C1.5 5.92487 6.42487 1 12.5 1C18.5751 1 23.5 5.92487 23.5 12C23.5 18.0751 18.5751 23 12.5 23C6.42487 23 1.5 18.0751 1.5 12ZM9.60472 6.14673C10.1526 5.92325 10.8566 5.9331 11.4446 6.33235L17.7423 10.6086C18.2091 10.9256 18.5 11.4351 18.5 12C18.5 12.5648 18.2091 13.0744 17.7423 13.3914L11.4446 17.6676C10.8566 18.0669 10.1526 18.0767 9.60472 17.8533C9.05968 17.6309 8.5 17.0902 8.5 16.2762V7.72376C8.5 6.90983 9.05969 6.36907 9.60472 6.14673Z" fill="#2EC4B6"/>
</svg>
