<svg width="25" height="24" viewBox="0 0 25 24" fill="none" xmlns="http://www.w3.org/2000/svg">
    <path fill-rule="evenodd" clip-rule="evenodd" d="M12.5 3C7.52944 3 3.5 7.02944 3.5 12C3.5 16.9706 7.52944 21 12.5 21C17.4706 21 21.5 16.9706 21.5 12C21.5 7.02944 17.4706 3 12.5 3ZM1.5 12C1.5 5.92487 6.42487 1 12.5 1C18.5751 1 23.5 5.92487 23.5 12C23.5 18.0751 18.5751 23 12.5 23C6.42487 23 1.5 18.0751 1.5 12Z" fill="#697B7A"/>
    <path fill-rule="evenodd" clip-rule="evenodd" d="M8.18332 6.37617C8.4887 6.19648 8.86636 6.19181 9.1761 6.36388L17.7475 11.1258C18.065 11.3022 18.2619 11.6368 18.2619 11.9999C18.2619 12.3631 18.065 12.6977 17.7475 12.8741L9.1761 17.636C8.86636 17.8081 8.4887 17.8034 8.18332 17.6237C7.87795 17.444 7.69045 17.1162 7.69045 16.7618V7.23804C7.69045 6.88372 7.87795 6.55585 8.18332 6.37617ZM9.69045 8.93755V15.0623L15.2028 11.9999L9.69045 8.93755Z" fill="#697B7A"/>
</svg>
