<svg width="12" height="13" viewBox="0 0 12 13" fill="none" xmlns="http://www.w3.org/2000/svg">
<path d="M11.25 6.49974C11.2503 6.62707 11.2177 6.75231 11.1552 6.86328C11.0928 6.97425 11.0027 7.06718 10.8937 7.13303L4.14 11.2646C4.02613 11.3343 3.89572 11.3724 3.76222 11.3748C3.62873 11.3773 3.49699 11.3441 3.38063 11.2787C3.26536 11.2142 3.16935 11.1202 3.10245 11.0064C3.03556 10.8925 3.00019 10.7629 3 10.6308V2.36865C3.00019 2.2366 3.03556 2.10698 3.10245 1.99312C3.16935 1.87927 3.26536 1.78528 3.38063 1.72084C3.49699 1.65538 3.62873 1.62217 3.76222 1.62464C3.89572 1.62711 4.02613 1.66518 4.14 1.7349L10.8937 5.86646C11.0027 5.93231 11.0928 6.02524 11.1552 6.13621C11.2177 6.24718 11.2503 6.37242 11.25 6.49974Z" fill="#7366FF"/>
</svg>
