<svg width="42" height="42" viewBox="0 0 42 42" fill="none" xmlns="http://www.w3.org/2000/svg">
<rect width="42" height="42" rx="16" fill="#F6FBFA"/>
<path fill-rule="evenodd" clip-rule="evenodd" d="M20.6376 10.068C20.8707 9.97733 21.1293 9.97733 21.3625 10.068L30.3625 13.568C30.7595 13.7224 31.0151 14.1113 30.9993 14.537L30.8265 19.2018C30.6139 24.944 26.9141 29.9731 21.4956 31.8855L21.3328 31.943C21.1175 32.019 20.8826 32.019 20.6672 31.943L20.5044 31.8855C15.0859 29.9731 11.3861 24.944 11.1735 19.2018L11.0007 14.537C10.9849 14.1113 11.2405 13.7224 11.6376 13.568L20.6376 10.068ZM13.0257 15.1741L13.1721 19.1278C13.3521 23.9894 16.4483 28.2546 21 29.9381C25.5517 28.2546 28.6479 23.9894 28.8279 19.1278L28.9744 15.1741L21 12.073L13.0257 15.1741Z" fill="#2EC4B6"/>
<path fill-rule="evenodd" clip-rule="evenodd" d="M27.7071 17.7072L19.7071 25.7072C19.3166 26.0977 18.6834 26.0977 18.2929 25.7072L14.7929 22.2072L16.2071 20.793L19 23.5859L26.2929 16.293L27.7071 17.7072Z" fill="#2EC4B6"/>
</svg>
