<svg width="25" height="24" viewBox="0 0 25 24" fill="none" xmlns="http://www.w3.org/2000/svg">
<path fill-rule="evenodd" clip-rule="evenodd" d="M12.5 4C10.2909 4 8.5 5.79086 8.5 8C8.5 10.2091 10.2909 12 12.5 12C14.7091 12 16.5 10.2091 16.5 8C16.5 5.79086 14.7091 4 12.5 4ZM6.5 8C6.5 4.68629 9.18629 2 12.5 2C15.8137 2 18.5 4.68629 18.5 8C18.5 11.3137 15.8137 14 12.5 14C9.18629 14 6.5 11.3137 6.5 8Z" fill="#697B7A"/>
<path fill-rule="evenodd" clip-rule="evenodd" d="M7.13802 17.8324C5.62108 18.3581 4.54836 19.0642 3.97953 19.785C3.9757 19.7898 3.97235 19.7943 3.96942 19.7983C3.9983 19.8327 4.05605 19.883 4.1502 19.9261C4.24813 19.971 4.36863 20 4.49999 20H20.5C20.6314 20 20.7519 19.971 20.8498 19.9261C20.9439 19.883 21.0017 19.8327 21.0306 19.7983C21.0276 19.7943 21.0243 19.7898 21.0205 19.785C20.4516 19.0642 19.3789 18.3581 17.862 17.8324C16.3637 17.3133 14.5151 17 12.5 17C10.4849 17 8.63629 17.3133 7.13802 17.8324ZM21.0495 19.8301C21.0495 19.8301 21.0492 19.8294 21.0488 19.828C21.0494 19.8295 21.0496 19.8302 21.0495 19.8301ZM3.95044 19.8301C3.9504 19.8301 3.9506 19.8295 3.95119 19.8281L3.95044 19.8301ZM6.48318 15.9427C8.21497 15.3426 10.2876 15 12.5 15C14.7124 15 16.785 15.3426 18.5168 15.9427C20.2299 16.5363 21.6962 17.4129 22.5904 18.5459C22.8879 18.9228 23.0542 19.367 23.0453 19.8368C23.0366 20.2987 22.8602 20.7055 22.6114 21.0238C22.1265 21.644 21.3233 22 20.5 22H4.49999C3.6767 22 2.87349 21.644 2.38863 21.0238C2.13977 20.7055 1.9634 20.2987 1.95468 19.8368C1.94582 19.367 2.1121 18.9228 2.40958 18.5459C3.30382 17.4129 4.77005 16.5363 6.48318 15.9427Z" fill="#697B7A"/>
</svg>
