<svg width="25" height="24" viewBox="0 0 25 24" fill="none" xmlns="http://www.w3.org/2000/svg">
<path fill-rule="evenodd" clip-rule="evenodd" d="M12.5 2C9.18629 2 6.5 4.68629 6.5 8C6.5 11.3137 9.18629 14 12.5 14C15.8137 14 18.5 11.3137 18.5 8C18.5 4.68629 15.8137 2 12.5 2Z" fill="#2EC4B6"/>
<path d="M4.5 21C3.39543 21 2.51025 20.0325 3.19456 19.1655C4.65763 17.3117 8.27246 16 12.5 16C16.7275 16 20.3424 17.3117 21.8054 19.1655C22.4898 20.0325 21.6046 21 20.5 21H4.5Z" fill="#2EC4B6"/>
<path fill-rule="evenodd" clip-rule="evenodd" d="M7.13803 17.8324C5.62109 18.3581 4.54837 19.0642 3.97954 19.785C3.97571 19.7898 3.97236 19.7943 3.96943 19.7983C3.99831 19.8327 4.05606 19.883 4.1502 19.9261C4.24813 19.971 4.36863 20 4.5 20H20.5C20.6314 20 20.7519 19.971 20.8498 19.9261C20.9439 19.883 21.0017 19.8327 21.0306 19.7983C21.0276 19.7943 21.0243 19.7898 21.0205 19.785C20.4516 19.0642 19.3789 18.3581 17.862 17.8324C16.3637 17.3133 14.5151 17 12.5 17C10.4849 17 8.6363 17.3133 7.13803 17.8324ZM21.0496 19.8301C21.0495 19.8301 21.0492 19.8294 21.0488 19.828C21.0494 19.8295 21.0496 19.8302 21.0496 19.8301ZM3.95045 19.8301C3.9504 19.8301 3.95061 19.8295 3.9512 19.8281L3.95045 19.8301ZM6.48319 15.9427C8.21498 15.3426 10.2876 15 12.5 15C14.7124 15 16.785 15.3426 18.5168 15.9427C20.2299 16.5363 21.6962 17.4129 22.5904 18.5459C22.8879 18.9228 23.0542 19.367 23.0453 19.8368C23.0366 20.2987 22.8602 20.7055 22.6114 21.0238C22.1265 21.644 21.3233 22 20.5 22H4.5C3.67671 22 2.8735 21.644 2.38864 21.0238C2.13978 20.7055 1.96341 20.2987 1.95469 19.8368C1.94582 19.367 2.11211 18.9228 2.40959 18.5459C3.30383 17.4129 4.77006 16.5363 6.48319 15.9427Z" fill="#2EC4B6"/>
</svg>
