<svg width="24" height="24" viewBox="0 0 24 24" fill="none" xmlns="http://www.w3.org/2000/svg">
<path fill-rule="evenodd" clip-rule="evenodd" d="M9.5 3C9.5 2.44772 9.94772 2 10.5 2H13.5C14.0523 2 14.5 2.44772 14.5 3V4.39866C14.8826 4.52443 15.2524 4.67822 15.6069 4.85756L16.5962 3.86827C16.9867 3.47775 17.6199 3.47775 18.0104 3.86827L20.1317 5.98959C20.3193 6.17713 20.4246 6.43148 20.4246 6.6967C20.4246 6.96192 20.3193 7.21627 20.1317 7.40381L19.1424 8.3931C19.3218 8.74763 19.4756 9.11741 19.6013 9.5H21C21.5523 9.5 22 9.94772 22 10.5V13.5C22 14.0523 21.5523 14.5 21 14.5H19.6013C19.4756 14.8826 19.3218 15.2524 19.1424 15.6069L20.1317 16.5962C20.5223 16.9867 20.5223 17.6199 20.1317 18.0104L18.0104 20.1317C17.6199 20.5223 16.9867 20.5223 16.5962 20.1317L15.6069 19.1424C15.2524 19.3218 14.8826 19.4756 14.5 19.6013V21C14.5 21.5523 14.0523 22 13.5 22H10.5C9.94772 22 9.5 21.5523 9.5 21V19.6013C9.11741 19.4756 8.74763 19.3218 8.3931 19.1424L7.40381 20.1317C7.21627 20.3193 6.96192 20.4246 6.6967 20.4246C6.43148 20.4246 6.17713 20.3193 5.98959 20.1317L3.86827 18.0104C3.47775 17.6199 3.47775 16.9867 3.86827 16.5962L4.85756 15.6069C4.67822 15.2524 4.52443 14.8826 4.39866 14.5H3C2.44772 14.5 2 14.0523 2 13.5V10.5C2 9.94772 2.44772 9.5 3 9.5H4.39866C4.52443 9.11741 4.67822 8.74763 4.85756 8.3931L3.86827 7.40381C3.47775 7.01328 3.47775 6.38012 3.86827 5.98959L5.98959 3.86827C6.38012 3.47775 7.01328 3.47775 7.40381 3.86827L8.3931 4.85756C8.74763 4.67822 9.11741 4.52443 9.5 4.39866V3ZM11.5 4V5.16109C11.5 5.63118 11.1726 6.03781 10.7133 6.13808C10.0103 6.29157 9.35304 6.56853 8.76524 6.94563C8.36959 7.19946 7.85055 7.14345 7.51816 6.81105L6.6967 5.98959L5.98959 6.6967L6.81105 7.51816C7.14345 7.85055 7.19946 8.36959 6.94563 8.76524C6.56853 9.35304 6.29157 10.0103 6.13808 10.7133C6.03781 11.1726 5.63118 11.5 5.16109 11.5H4V12.5H5.16109C5.63118 12.5 6.03781 12.8274 6.13808 13.2867C6.29157 13.9897 6.56853 14.647 6.94563 15.2348C7.19946 15.6304 7.14345 16.1494 6.81105 16.4818L5.98959 17.3033L6.6967 18.0104L7.51816 17.1889C7.85055 16.8566 8.36959 16.8005 8.76524 17.0544C9.35304 17.4315 10.0103 17.7084 10.7133 17.8619C11.1726 17.9622 11.5 18.3688 11.5 18.8389V20H12.5V18.8389C12.5 18.3688 12.8274 17.9622 13.2867 17.8619C13.9897 17.7084 14.647 17.4315 15.2348 17.0544C15.6304 16.8005 16.1494 16.8566 16.4818 17.1889L17.3033 18.0104L18.0104 17.3033L17.1889 16.4818C16.8566 16.1494 16.8005 15.6304 17.0544 15.2348C17.4315 14.647 17.7084 13.9897 17.8619 13.2867C17.9622 12.8274 18.3688 12.5 18.8389 12.5H20V11.5H18.8389C18.3688 11.5 17.9622 11.1726 17.8619 10.7133C17.7084 10.0103 17.4315 9.35304 17.0544 8.76524C16.8005 8.36959 16.8566 7.85055 17.1889 7.51816L18.0104 6.6967L17.3033 5.98959L16.4818 6.81105C16.1494 7.14345 15.6304 7.19946 15.2348 6.94563C14.647 6.56853 13.9897 6.29157 13.2867 6.13808C12.8274 6.03781 12.5 5.63118 12.5 5.16109V4H11.5Z" fill="#2EC4B6"/>
<path fill-rule="evenodd" clip-rule="evenodd" d="M12 10C10.8954 10 10 10.8954 10 12C10 13.1046 10.8954 14 12 14C13.1046 14 14 13.1046 14 12C14 10.8954 13.1046 10 12 10ZM8 12C8 9.79086 9.79086 8 12 8C14.2091 8 16 9.79086 16 12C16 14.2091 14.2091 16 12 16C9.79086 16 8 14.2091 8 12Z" fill="#2EC4B6"/>
</svg>
