<svg width="42" height="42" viewBox="0 0 42 42" fill="none" xmlns="http://www.w3.org/2000/svg">
<rect width="42" height="42" rx="16" fill="#F6FBFA"/>
<path fill-rule="evenodd" clip-rule="evenodd" d="M18.5 12C18.5 11.4477 18.9477 11 19.5 11H22.5C23.0523 11 23.5 11.4477 23.5 12V13.3987C23.8826 13.5244 24.2524 13.6782 24.6069 13.8576L25.5962 12.8683C25.9867 12.4777 26.6199 12.4777 27.0104 12.8683L29.1317 14.9896C29.3193 15.1771 29.4246 15.4315 29.4246 15.6967C29.4246 15.9619 29.3193 16.2163 29.1317 16.4038L28.1424 17.3931C28.3218 17.7476 28.4756 18.1174 28.6013 18.5H30C30.5523 18.5 31 18.9477 31 19.5V22.5C31 23.0523 30.5523 23.5 30 23.5H28.6013C28.4756 23.8826 28.3218 24.2524 28.1424 24.6069L29.1317 25.5962C29.5223 25.9867 29.5223 26.6199 29.1317 27.0104L27.0104 29.1317C26.6199 29.5223 25.9867 29.5223 25.5962 29.1317L24.6069 28.1424C24.2524 28.3218 23.8826 28.4756 23.5 28.6013V30C23.5 30.5523 23.0523 31 22.5 31H19.5C18.9477 31 18.5 30.5523 18.5 30V28.6013C18.1174 28.4756 17.7476 28.3218 17.3931 28.1424L16.4038 29.1317C16.2163 29.3193 15.9619 29.4246 15.6967 29.4246C15.4315 29.4246 15.1771 29.3193 14.9896 29.1317L12.8683 27.0104C12.4777 26.6199 12.4777 25.9867 12.8683 25.5962L13.8576 24.6069C13.6782 24.2524 13.5244 23.8826 13.3987 23.5H12C11.4477 23.5 11 23.0523 11 22.5V19.5C11 18.9477 11.4477 18.5 12 18.5H13.3987C13.5244 18.1174 13.6782 17.7476 13.8576 17.3931L12.8683 16.4038C12.4777 16.0133 12.4777 15.3801 12.8683 14.9896L14.9896 12.8683C15.3801 12.4777 16.0133 12.4777 16.4038 12.8683L17.3931 13.8576C17.7476 13.6782 18.1174 13.5244 18.5 13.3987V12ZM20.5 13V14.1611C20.5 14.6312 20.1726 15.0378 19.7133 15.1381C19.0103 15.2916 18.353 15.5685 17.7652 15.9456C17.3696 16.1995 16.8506 16.1434 16.5182 15.8111L15.6967 14.9896L14.9896 15.6967L15.8111 16.5182C16.1434 16.8506 16.1995 17.3696 15.9456 17.7652C15.5685 18.353 15.2916 19.0103 15.1381 19.7133C15.0378 20.1726 14.6312 20.5 14.1611 20.5H13V21.5H14.1611C14.6312 21.5 15.0378 21.8274 15.1381 22.2867C15.2916 22.9897 15.5685 23.647 15.9456 24.2348C16.1995 24.6304 16.1434 25.1494 15.8111 25.4818L14.9896 26.3033L15.6967 27.0104L16.5182 26.1889C16.8506 25.8566 17.3696 25.8005 17.7652 26.0544C18.353 26.4315 19.0103 26.7084 19.7133 26.8619C20.1726 26.9622 20.5 27.3688 20.5 27.8389V29H21.5V27.8389C21.5 27.3688 21.8274 26.9622 22.2867 26.8619C22.9897 26.7084 23.647 26.4315 24.2348 26.0544C24.6304 25.8005 25.1494 25.8566 25.4818 26.1889L26.3033 27.0104L27.0104 26.3033L26.1889 25.4818C25.8566 25.1494 25.8005 24.6304 26.0544 24.2348C26.4315 23.647 26.7084 22.9897 26.8619 22.2867C26.9622 21.8274 27.3688 21.5 27.8389 21.5H29V20.5H27.8389C27.3688 20.5 26.9622 20.1726 26.8619 19.7133C26.7084 19.0103 26.4315 18.353 26.0544 17.7652C25.8005 17.3696 25.8566 16.8506 26.1889 16.5182L27.0104 15.6967L26.3033 14.9896L25.4818 15.8111C25.1494 16.1434 24.6304 16.1995 24.2348 15.9456C23.647 15.5685 22.9897 15.2916 22.2867 15.1381C21.8274 15.0378 21.5 14.6312 21.5 14.1611V13H20.5Z" fill="#2EC4B6"/>
<path fill-rule="evenodd" clip-rule="evenodd" d="M21 19C19.8954 19 19 19.8954 19 21C19 22.1046 19.8954 23 21 23C22.1046 23 23 22.1046 23 21C23 19.8954 22.1046 19 21 19ZM17 21C17 18.7909 18.7909 17 21 17C23.2091 17 25 18.7909 25 21C25 23.2091 23.2091 25 21 25C18.7909 25 17 23.2091 17 21Z" fill="#2EC4B6"/>
</svg>
