<svg width="24" height="24" viewBox="0 0 24 24" fill="none" xmlns="http://www.w3.org/2000/svg">
<path fill-rule="evenodd" clip-rule="evenodd" d="M11.6376 1.068C11.8707 0.977335 12.1293 0.977335 12.3625 1.068L21.3625 4.568C21.7595 4.72239 22.0151 5.11133 21.9993 5.53701L21.8265 10.2018C21.6139 15.944 17.9141 20.9731 12.4956 22.8855L12.3328 22.943C12.1175 23.019 11.8826 23.019 11.6672 22.943L11.5044 22.8855C6.08588 20.9731 2.38613 15.944 2.17346 10.2018L2.00069 5.53701C1.98492 5.11133 2.24055 4.72239 2.63756 4.568L11.6376 1.068ZM4.02566 6.17409L4.17209 10.1278C4.35215 14.9894 7.44835 19.2546 12 20.9381C16.5517 19.2546 19.6479 14.9894 19.8279 10.1278L19.9744 6.17409L12 3.07296L4.02566 6.17409Z" fill="#2EC4B6"/>
<path fill-rule="evenodd" clip-rule="evenodd" d="M18.7071 8.70718L10.7071 16.7072C10.3166 17.0977 9.68342 17.0977 9.29289 16.7072L5.79289 13.2072L7.20711 11.793L10 14.5859L17.2929 7.29297L18.7071 8.70718Z" fill="#2EC4B6"/>
</svg>
