<svg width="24" height="24" viewBox="0 0 24 24" fill="none" xmlns="http://www.w3.org/2000/svg">
    <path fill-rule="evenodd" clip-rule="evenodd" d="M12 4C9.79086 4 8 5.79086 8 8C8 10.2091 9.79086 12 12 12C14.2091 12 16 10.2091 16 8C16 5.79086 14.2091 4 12 4ZM6 8C6 4.68629 8.68629 2 12 2C15.3137 2 18 4.68629 18 8C18 11.3137 15.3137 14 12 14C8.68629 14 6 11.3137 6 8Z" fill="#2EC4B6"/>
    <path fill-rule="evenodd" clip-rule="evenodd" d="M6.63802 17.8324C5.12108 18.3581 4.04836 19.0642 3.47953 19.785C3.4757 19.7898 3.47235 19.7943 3.46942 19.7983C3.4983 19.8327 3.55605 19.883 3.6502 19.9261C3.74813 19.971 3.86863 20 3.99999 20H20C20.1314 20 20.2519 19.971 20.3498 19.9261C20.4439 19.883 20.5017 19.8327 20.5306 19.7983C20.5276 19.7943 20.5243 19.7898 20.5205 19.785C19.9516 19.0642 18.8789 18.3581 17.362 17.8324C15.8637 17.3133 14.0151 17 12 17C9.98487 17 8.13629 17.3133 6.63802 17.8324ZM20.5495 19.8301C20.5495 19.8301 20.5492 19.8294 20.5488 19.828C20.5494 19.8295 20.5496 19.8302 20.5495 19.8301ZM3.45044 19.8301C3.4504 19.8301 3.4506 19.8295 3.45119 19.8281L3.45044 19.8301ZM5.98318 15.9427C7.71497 15.3426 9.78758 15 12 15C14.2124 15 16.285 15.3426 18.0168 15.9427C19.7299 16.5363 21.1962 17.4129 22.0904 18.5459C22.3879 18.9228 22.5542 19.367 22.5453 19.8368C22.5366 20.2987 22.3602 20.7055 22.1114 21.0238C21.6265 21.644 20.8233 22 20 22H3.99999C3.1767 22 2.37349 21.644 1.88863 21.0238C1.63977 20.7055 1.4634 20.2987 1.45468 19.8368C1.44582 19.367 1.6121 18.9228 1.90958 18.5459C2.80382 17.4129 4.27005 16.5363 5.98318 15.9427Z" fill="#2EC4B6"/>
</svg>
