<svg width="20" height="20" viewBox="0 0 20 20" fill="none" xmlns="http://www.w3.org/2000/svg">
<path d="M15.3771 14.7791C15.4186 14.8178 15.452 14.8646 15.4751 14.9165C15.4982 14.9683 15.5107 15.0244 15.5117 15.0812C15.5127 15.138 15.5022 15.1944 15.4809 15.2471C15.4596 15.2998 15.428 15.3476 15.3878 15.3878C15.3476 15.428 15.2998 15.4596 15.2471 15.4809C15.1944 15.5022 15.138 15.5127 15.0812 15.5117C15.0244 15.5107 14.9683 15.4982 14.9165 15.4751C14.8646 15.452 14.8178 15.4186 14.7791 15.3771L10.0012 10.5998L5.22322 15.3771C5.14302 15.4518 5.03694 15.4925 4.92733 15.4905C4.81773 15.4886 4.71315 15.4442 4.63564 15.3667C4.55812 15.2892 4.51372 15.1846 4.51178 15.075C4.50985 14.9654 4.55054 14.8593 4.62527 14.7791L9.40251 10.0012L4.62527 5.22322C4.55054 5.14302 4.50985 5.03694 4.51178 4.92733C4.51372 4.81773 4.55812 4.71315 4.63564 4.63564C4.71315 4.55812 4.81773 4.51372 4.92733 4.51178C5.03694 4.50985 5.14302 4.55054 5.22322 4.62527L10.0012 9.40251L14.7791 4.62527C14.8593 4.55054 14.9654 4.50985 15.075 4.51178C15.1846 4.51372 15.2892 4.55812 15.3667 4.63564C15.4442 4.71315 15.4886 4.81773 15.4905 4.92733C15.4925 5.03694 15.4518 5.14302 15.3771 5.22322L10.5998 10.0012L15.3771 14.7791Z" fill="white"/>
</svg>
